<mxfile host="app.diagrams.net" modified="2022-03-09T23:15:53.363Z" agent="5.0 (Windows)" etag="mgQe7WuI78-IZ7HcgnF5" version="17.0.0" type="github">
  <diagram id="NU3_bvbXT5h20EgUqwco" name="Page-1">
    <mxGraphModel dx="1240" dy="1743" grid="1" gridSize="10" guides="1" tooltips="1" connect="1" arrows="1" fold="1" page="1" pageScale="1" pageWidth="850" pageHeight="1100" math="0" shadow="0">
      <root>
        <mxCell id="0" />
        <mxCell id="1" parent="0" />
        <mxCell id="2rs7e-YseNgkPCsbFFX2-1" value="&lt;font style=&quot;font-size: 16px&quot;&gt;Player Input&lt;/font&gt;" style="edgeStyle=orthogonalEdgeStyle;rounded=0;orthogonalLoop=1;jettySize=auto;html=1;exitX=1;exitY=0.5;exitDx=0;exitDy=0;entryX=0;entryY=0.5;entryDx=0;entryDy=0;strokeWidth=3;" edge="1" parent="1" source="2rs7e-YseNgkPCsbFFX2-6" target="2rs7e-YseNgkPCsbFFX2-3">
          <mxGeometry relative="1" as="geometry">
            <mxPoint as="offset" />
          </mxGeometry>
        </mxCell>
        <mxCell id="2rs7e-YseNgkPCsbFFX2-11" style="edgeStyle=orthogonalEdgeStyle;rounded=0;orthogonalLoop=1;jettySize=auto;html=1;exitX=1;exitY=0.5;exitDx=0;exitDy=0;entryX=0;entryY=0.5;entryDx=0;entryDy=0;fontSize=24;strokeWidth=3;" edge="1" parent="1" source="2rs7e-YseNgkPCsbFFX2-3" target="2rs7e-YseNgkPCsbFFX2-10">
          <mxGeometry relative="1" as="geometry" />
        </mxCell>
        <mxCell id="2rs7e-YseNgkPCsbFFX2-3" value="&lt;div&gt;1. Attack&lt;/div&gt;" style="ellipse;whiteSpace=wrap;html=1;aspect=fixed;fontSize=24;strokeWidth=3;" vertex="1" parent="1">
          <mxGeometry x="330" y="200" width="150" height="150" as="geometry" />
        </mxCell>
        <mxCell id="2rs7e-YseNgkPCsbFFX2-22" style="edgeStyle=orthogonalEdgeStyle;rounded=0;orthogonalLoop=1;jettySize=auto;html=1;exitX=0.5;exitY=1;exitDx=0;exitDy=0;entryX=0;entryY=0.5;entryDx=0;entryDy=0;fontSize=16;strokeWidth=3;" edge="1" parent="1" source="2rs7e-YseNgkPCsbFFX2-6" target="2rs7e-YseNgkPCsbFFX2-8">
          <mxGeometry relative="1" as="geometry" />
        </mxCell>
        <mxCell id="2rs7e-YseNgkPCsbFFX2-23" value="Player Input" style="edgeLabel;html=1;align=center;verticalAlign=middle;resizable=0;points=[];fontSize=16;" vertex="1" connectable="0" parent="2rs7e-YseNgkPCsbFFX2-22">
          <mxGeometry x="-0.2583" y="3" relative="1" as="geometry">
            <mxPoint as="offset" />
          </mxGeometry>
        </mxCell>
        <mxCell id="2rs7e-YseNgkPCsbFFX2-6" value="&lt;font style=&quot;font-size: 24px&quot;&gt;Player&lt;/font&gt;" style="rounded=1;whiteSpace=wrap;html=1;strokeWidth=3;" vertex="1" parent="1">
          <mxGeometry x="50" y="245" width="120" height="60" as="geometry" />
        </mxCell>
        <mxCell id="2rs7e-YseNgkPCsbFFX2-8" value="&lt;div&gt;2. Weapon Mechanics&lt;br&gt;&lt;/div&gt;" style="ellipse;whiteSpace=wrap;html=1;aspect=fixed;fontSize=24;strokeWidth=3;" vertex="1" parent="1">
          <mxGeometry x="330" y="390" width="150" height="150" as="geometry" />
        </mxCell>
        <mxCell id="2rs7e-YseNgkPCsbFFX2-15" value="&lt;font style=&quot;font-size: 16px&quot;&gt;No&lt;/font&gt;" style="edgeStyle=orthogonalEdgeStyle;rounded=0;orthogonalLoop=1;jettySize=auto;html=1;exitX=1;exitY=0.5;exitDx=0;exitDy=0;entryX=0;entryY=0.5;entryDx=0;entryDy=0;fontSize=24;strokeWidth=3;" edge="1" parent="1" source="2rs7e-YseNgkPCsbFFX2-10" target="2rs7e-YseNgkPCsbFFX2-13">
          <mxGeometry relative="1" as="geometry" />
        </mxCell>
        <mxCell id="2rs7e-YseNgkPCsbFFX2-16" value="Yes" style="edgeStyle=orthogonalEdgeStyle;rounded=0;orthogonalLoop=1;jettySize=auto;html=1;exitX=0.5;exitY=0;exitDx=0;exitDy=0;entryX=0.5;entryY=1;entryDx=0;entryDy=0;fontSize=16;strokeWidth=3;" edge="1" parent="1" source="2rs7e-YseNgkPCsbFFX2-10" target="2rs7e-YseNgkPCsbFFX2-12">
          <mxGeometry relative="1" as="geometry" />
        </mxCell>
        <mxCell id="2rs7e-YseNgkPCsbFFX2-10" value="Bladed Weapon?" style="rhombus;whiteSpace=wrap;html=1;strokeWidth=3;fontSize=24;" vertex="1" parent="1">
          <mxGeometry x="550" y="220" width="150" height="110" as="geometry" />
        </mxCell>
        <mxCell id="2rs7e-YseNgkPCsbFFX2-19" value="&lt;div&gt;&lt;font style=&quot;font-size: 16px&quot;&gt;Hit &lt;br&gt;&lt;/font&gt;&lt;/div&gt;&lt;div&gt;&lt;font style=&quot;font-size: 16px&quot;&gt;Object&lt;/font&gt;&lt;/div&gt;" style="edgeStyle=orthogonalEdgeStyle;rounded=0;orthogonalLoop=1;jettySize=auto;html=1;exitX=1;exitY=0.5;exitDx=0;exitDy=0;fontSize=24;strokeWidth=3;" edge="1" parent="1">
          <mxGeometry x="-0.1429" y="2" relative="1" as="geometry">
            <mxPoint x="699.9999999999995" y="72" as="sourcePoint" />
            <mxPoint x="770" y="72" as="targetPoint" />
            <mxPoint as="offset" />
          </mxGeometry>
        </mxCell>
        <mxCell id="2rs7e-YseNgkPCsbFFX2-12" value="&lt;div&gt;3. Attack&lt;/div&gt;&lt;div&gt;Animation&lt;br&gt;&lt;/div&gt;" style="ellipse;whiteSpace=wrap;html=1;aspect=fixed;fontSize=24;strokeWidth=3;" vertex="1" parent="1">
          <mxGeometry x="550" y="-3" width="150" height="150" as="geometry" />
        </mxCell>
        <mxCell id="2rs7e-YseNgkPCsbFFX2-20" value="&lt;font style=&quot;font-size: 16px&quot;&gt;Hit Object&lt;/font&gt;" style="edgeStyle=orthogonalEdgeStyle;rounded=0;orthogonalLoop=1;jettySize=auto;html=1;exitX=0.5;exitY=0;exitDx=0;exitDy=0;entryX=0.5;entryY=1;entryDx=0;entryDy=0;fontSize=24;strokeWidth=3;" edge="1" parent="1" source="2rs7e-YseNgkPCsbFFX2-13" target="2rs7e-YseNgkPCsbFFX2-18">
          <mxGeometry relative="1" as="geometry" />
        </mxCell>
        <mxCell id="2rs7e-YseNgkPCsbFFX2-13" value="&lt;div&gt;4. Hit Target&lt;br&gt;&lt;/div&gt;" style="ellipse;whiteSpace=wrap;html=1;aspect=fixed;fontSize=24;strokeWidth=3;" vertex="1" parent="1">
          <mxGeometry x="770" y="200" width="150" height="150" as="geometry" />
        </mxCell>
        <mxCell id="2rs7e-YseNgkPCsbFFX2-21" value="&lt;font style=&quot;font-size: 16px&quot;&gt;Reduce HP&lt;/font&gt;" style="edgeStyle=orthogonalEdgeStyle;rounded=0;orthogonalLoop=1;jettySize=auto;html=1;exitX=0.5;exitY=0;exitDx=0;exitDy=0;fontSize=24;strokeWidth=3;" edge="1" parent="1" source="2rs7e-YseNgkPCsbFFX2-18" target="2rs7e-YseNgkPCsbFFX2-6">
          <mxGeometry relative="1" as="geometry" />
        </mxCell>
        <mxCell id="2rs7e-YseNgkPCsbFFX2-18" value="&lt;div&gt;5. Deal Damage&lt;br&gt;&lt;/div&gt;" style="ellipse;whiteSpace=wrap;html=1;aspect=fixed;fontSize=24;strokeWidth=3;" vertex="1" parent="1">
          <mxGeometry x="770" y="-3" width="150" height="150" as="geometry" />
        </mxCell>
      </root>
    </mxGraphModel>
  </diagram>
</mxfile>
